# xmcd CD database file
#
# Track frame offsets:
#	150
#	20721
#	36706
#	55978
#	77460
#	95044
#	114887
#	136312
#	151997
#	169637
#	186671
#	202097
#	222740
#	240711
#
# Disc length: 3468 seconds
#
# Revision: 1
# Processed by: cddbd v1.5.2PL0 Copyright (c) Steve Scherf et al.
# Submitted via: CDex 1.51
#
DISCID=d00d8a0e
DTITLE=Val Milhomem e Joasinho Gomes - 50 Anos - Vol. 1
DYEAR=2007
DGENRE=MPB
TTITLE0=Canto dos castanhais
TTITLE1=Sabor acai
TTITLE2=Mistura cabana
TTITLE3=Brilho de fogo
TTITLE4=Jardim infame
TTITLE5=Sao Benedito
TTITLE6=Algum verao
TTITLE7=Outra visao
TTITLE8=Alem dos meus sonhos
TTITLE9=Carimbo modernista
TTITLE10=Barco negreiro
TTITLE11=Igacaba
TTITLE12=Punhal de ferro
TTITLE13=Formigueiro
EXTD=YEAR: 2007
EXTT0=
EXTT1=
EXTT2=
EXTT3=
EXTT4=
EXTT5=
EXTT6=
EXTT7=
EXTT8=
EXTT9=
EXTT10=
EXTT11=
EXTT12=
EXTT13=
PLAYORDER=
